<mxfile host="Electron" modified="2024-04-08T08:31:02.206Z" agent="Mozilla/5.0 (Windows NT 10.0; Win64; x64) AppleWebKit/537.36 (KHTML, like Gecko) draw.io/24.1.0 Chrome/120.0.6099.109 Electron/28.1.0 Safari/537.36" etag="EiyDCZNLwYqcfusXPw39" version="24.1.0" type="device">
  <diagram id="CJxioFRpOExDyL8T32NF" name="第 1 页">
    <mxGraphModel dx="1789" dy="606" grid="0" gridSize="10" guides="1" tooltips="1" connect="1" arrows="1" fold="1" page="0" pageScale="1" pageWidth="827" pageHeight="1169" math="0" shadow="0">
      <root>
        <mxCell id="0" />
        <mxCell id="1" parent="0" />
        <mxCell id="XGU3mhsUJ1ktwW29gm3S-37" style="edgeStyle=orthogonalEdgeStyle;rounded=0;orthogonalLoop=1;jettySize=auto;html=1;entryX=0;entryY=0.5;entryDx=0;entryDy=0;sketch=1;curveFitting=1;jiggle=2;" parent="1" source="XGU3mhsUJ1ktwW29gm3S-26" target="XGU3mhsUJ1ktwW29gm3S-29" edge="1">
          <mxGeometry relative="1" as="geometry" />
        </mxCell>
        <mxCell id="XGU3mhsUJ1ktwW29gm3S-26" value="&lt;font face=&quot;Comic Sans MS&quot;&gt;property&lt;/font&gt;&lt;br&gt;&lt;div&gt;&lt;font color=&quot;#00cc00&quot; face=&quot;Comic Sans MS&quot;&gt;useDefaultRenderLoop&lt;/font&gt;&lt;div&gt;&lt;font face=&quot;Comic Sans MS&quot;&gt;to true&lt;/font&gt;&lt;/div&gt;&lt;/div&gt;" style="text;html=1;align=center;verticalAlign=middle;resizable=0;points=[];autosize=1;strokeColor=none;fillColor=none;" parent="1" vertex="1">
          <mxGeometry x="-157" y="287" width="145" height="58" as="geometry" />
        </mxCell>
        <mxCell id="XGU3mhsUJ1ktwW29gm3S-27" value="" style="swimlane;startSize=0;rounded=0;glass=0;shadow=0;swimlaneLine=1;" parent="1" vertex="1">
          <mxGeometry x="230" y="170" width="340" height="250" as="geometry">
            <mxRectangle x="420" y="60" width="50" height="40" as="alternateBounds" />
          </mxGeometry>
        </mxCell>
        <mxCell id="-csEgPG5xFllc0H3XNbd-17" value="" style="group" vertex="1" connectable="0" parent="XGU3mhsUJ1ktwW29gm3S-27">
          <mxGeometry x="40" y="20" width="278" height="200" as="geometry" />
        </mxCell>
        <mxCell id="XGU3mhsUJ1ktwW29gm3S-2" value="" style="rounded=0;whiteSpace=wrap;html=1;" parent="-csEgPG5xFllc0H3XNbd-17" vertex="1">
          <mxGeometry x="70" y="20" width="180" height="120" as="geometry" />
        </mxCell>
        <mxCell id="XGU3mhsUJ1ktwW29gm3S-3" value="" style="rounded=0;whiteSpace=wrap;html=1;" parent="-csEgPG5xFllc0H3XNbd-17" vertex="1">
          <mxGeometry x="40" y="50" width="180" height="120" as="geometry" />
        </mxCell>
        <mxCell id="XGU3mhsUJ1ktwW29gm3S-12" value="" style="rounded=0;whiteSpace=wrap;html=1;" parent="-csEgPG5xFllc0H3XNbd-17" vertex="1">
          <mxGeometry x="200" y="60" width="10" height="10" as="geometry" />
        </mxCell>
        <mxCell id="XGU3mhsUJ1ktwW29gm3S-14" value="" style="rounded=0;whiteSpace=wrap;html=1;" parent="-csEgPG5xFllc0H3XNbd-17" vertex="1">
          <mxGeometry x="200" y="70" width="10" height="10" as="geometry" />
        </mxCell>
        <mxCell id="XGU3mhsUJ1ktwW29gm3S-15" value="" style="rounded=0;whiteSpace=wrap;html=1;" parent="-csEgPG5xFllc0H3XNbd-17" vertex="1">
          <mxGeometry x="200" y="80" width="10" height="10" as="geometry" />
        </mxCell>
        <mxCell id="XGU3mhsUJ1ktwW29gm3S-16" value="" style="rounded=0;whiteSpace=wrap;html=1;" parent="-csEgPG5xFllc0H3XNbd-17" vertex="1">
          <mxGeometry x="230" y="30" width="10" height="10" as="geometry" />
        </mxCell>
        <mxCell id="XGU3mhsUJ1ktwW29gm3S-17" value="" style="rounded=0;whiteSpace=wrap;html=1;" parent="-csEgPG5xFllc0H3XNbd-17" vertex="1">
          <mxGeometry x="230" y="40" width="10" height="10" as="geometry" />
        </mxCell>
        <mxCell id="XGU3mhsUJ1ktwW29gm3S-18" value="" style="rounded=0;whiteSpace=wrap;html=1;" parent="-csEgPG5xFllc0H3XNbd-17" vertex="1">
          <mxGeometry x="230" y="50" width="10" height="10" as="geometry" />
        </mxCell>
        <mxCell id="XGU3mhsUJ1ktwW29gm3S-24" value="" style="group;fillColor=#d5e8d4;strokeColor=#82b366;container=0;" parent="-csEgPG5xFllc0H3XNbd-17" vertex="1" connectable="0">
          <mxGeometry x="10" y="80" width="180" height="120" as="geometry" />
        </mxCell>
        <mxCell id="XGU3mhsUJ1ktwW29gm3S-4" value="" style="rounded=0;whiteSpace=wrap;html=1;container=0;fillColor=#d5e8d4;strokeColor=#82b366;" parent="-csEgPG5xFllc0H3XNbd-17" vertex="1">
          <mxGeometry x="10" y="80" width="180" height="120" as="geometry" />
        </mxCell>
        <mxCell id="XGU3mhsUJ1ktwW29gm3S-5" value="" style="ellipse;whiteSpace=wrap;html=1;aspect=fixed;container=0;" parent="-csEgPG5xFllc0H3XNbd-17" vertex="1">
          <mxGeometry x="70" y="110" width="60" height="60" as="geometry" />
        </mxCell>
        <mxCell id="XGU3mhsUJ1ktwW29gm3S-6" value="" style="rounded=0;whiteSpace=wrap;html=1;container=0;" parent="-csEgPG5xFllc0H3XNbd-17" vertex="1">
          <mxGeometry x="20" y="180" width="10" height="10" as="geometry" />
        </mxCell>
        <mxCell id="XGU3mhsUJ1ktwW29gm3S-7" value="" style="rounded=0;whiteSpace=wrap;html=1;container=0;" parent="-csEgPG5xFllc0H3XNbd-17" vertex="1">
          <mxGeometry x="40" y="180" width="140" height="10" as="geometry" />
        </mxCell>
        <mxCell id="XGU3mhsUJ1ktwW29gm3S-9" value="" style="rounded=0;whiteSpace=wrap;html=1;container=0;" parent="-csEgPG5xFllc0H3XNbd-17" vertex="1">
          <mxGeometry x="170" y="90" width="10" height="10" as="geometry" />
        </mxCell>
        <mxCell id="XGU3mhsUJ1ktwW29gm3S-10" value="" style="rounded=0;whiteSpace=wrap;html=1;container=0;" parent="-csEgPG5xFllc0H3XNbd-17" vertex="1">
          <mxGeometry x="170" y="100" width="10" height="10" as="geometry" />
        </mxCell>
        <mxCell id="XGU3mhsUJ1ktwW29gm3S-11" value="" style="rounded=0;whiteSpace=wrap;html=1;container=0;" parent="-csEgPG5xFllc0H3XNbd-17" vertex="1">
          <mxGeometry x="170" y="110" width="10" height="10" as="geometry" />
        </mxCell>
        <mxCell id="XGU3mhsUJ1ktwW29gm3S-19" value="" style="rounded=0;whiteSpace=wrap;html=1;fillColor=none;dashed=1;container=0;" parent="-csEgPG5xFllc0H3XNbd-17" vertex="1">
          <mxGeometry x="40" y="100" width="120" height="75" as="geometry" />
        </mxCell>
        <mxCell id="XGU3mhsUJ1ktwW29gm3S-22" value="" style="endArrow=classic;html=1;rounded=0;" parent="-csEgPG5xFllc0H3XNbd-17" edge="1">
          <mxGeometry width="50" height="50" relative="1" as="geometry">
            <mxPoint x="45" y="184.71" as="sourcePoint" />
            <mxPoint x="175" y="184.71" as="targetPoint" />
          </mxGeometry>
        </mxCell>
        <mxCell id="XGU3mhsUJ1ktwW29gm3S-23" value="" style="ellipse;whiteSpace=wrap;html=1;container=0;" parent="-csEgPG5xFllc0H3XNbd-17" vertex="1">
          <mxGeometry x="70" y="130" width="60" height="20" as="geometry" />
        </mxCell>
        <mxCell id="XGU3mhsUJ1ktwW29gm3S-31" value="" style="endArrow=classic;html=1;rounded=0;flowAnimation=0;sketch=1;curveFitting=1;jiggle=2;jumpStyle=none;entryX=0.99;entryY=0.9;entryDx=0;entryDy=0;exitX=1.013;exitY=0.9;exitDx=0;exitDy=0;exitPerimeter=0;entryPerimeter=0;" parent="-csEgPG5xFllc0H3XNbd-17" source="XGU3mhsUJ1ktwW29gm3S-4" target="XGU3mhsUJ1ktwW29gm3S-2" edge="1">
          <mxGeometry width="50" height="50" relative="1" as="geometry">
            <mxPoint x="190" y="200" as="sourcePoint" />
            <mxPoint x="240" y="150" as="targetPoint" />
          </mxGeometry>
        </mxCell>
        <mxCell id="XGU3mhsUJ1ktwW29gm3S-49" value="&lt;font color=&quot;#007fff&quot; face=&quot;Comic Sans MS&quot;&gt;render()&lt;/font&gt;" style="text;html=1;align=center;verticalAlign=middle;resizable=0;points=[];autosize=1;strokeColor=none;fillColor=none;fontFamily=Architects Daughter;fontSource=https%3A%2F%2Ffonts.googleapis.com%2Fcss%3Ffamily%3DArchitects%2BDaughter;" parent="-csEgPG5xFllc0H3XNbd-17" vertex="1">
          <mxGeometry x="3" y="66" width="65" height="28" as="geometry" />
        </mxCell>
        <mxCell id="XGU3mhsUJ1ktwW29gm3S-51" value="&lt;font color=&quot;#007fff&quot; face=&quot;Comic Sans MS&quot;&gt;render()&lt;/font&gt;" style="text;html=1;align=center;verticalAlign=middle;resizable=0;points=[];autosize=1;strokeColor=none;fillColor=none;fontFamily=Architects Daughter;fontSource=https%3A%2F%2Ffonts.googleapis.com%2Fcss%3Ffamily%3DArchitects%2BDaughter;" parent="-csEgPG5xFllc0H3XNbd-17" vertex="1">
          <mxGeometry x="63" y="1" width="65" height="28" as="geometry" />
        </mxCell>
        <mxCell id="XGU3mhsUJ1ktwW29gm3S-50" value="&lt;font color=&quot;#007fff&quot; face=&quot;Comic Sans MS&quot;&gt;render()&lt;/font&gt;" style="text;html=1;align=center;verticalAlign=middle;resizable=0;points=[];autosize=1;strokeColor=none;fillColor=none;fontFamily=Architects Daughter;fontSource=https%3A%2F%2Ffonts.googleapis.com%2Fcss%3Ffamily%3DArchitects%2BDaughter;" parent="-csEgPG5xFllc0H3XNbd-17" vertex="1">
          <mxGeometry x="33" y="31" width="65" height="28" as="geometry" />
        </mxCell>
        <mxCell id="XGU3mhsUJ1ktwW29gm3S-48" value="&lt;font color=&quot;#007fff&quot; face=&quot;Comic Sans MS&quot;&gt;rAF API&lt;/font&gt;" style="text;html=1;align=center;verticalAlign=middle;resizable=0;points=[];autosize=1;strokeColor=none;fillColor=none;fontFamily=Architects Daughter;fontSource=https%3A%2F%2Ffonts.googleapis.com%2Fcss%3Ffamily%3DArchitects%2BDaughter;" parent="-csEgPG5xFllc0H3XNbd-17" vertex="1">
          <mxGeometry x="213" y="161" width="65" height="28" as="geometry" />
        </mxCell>
        <mxCell id="XGU3mhsUJ1ktwW29gm3S-29" value="             fn&#xa;startRenderLoop()" style="text;whiteSpace=wrap;fontFamily=Comic Sans MS;fontColor=#007FFF;" parent="1" vertex="1">
          <mxGeometry x="40" y="300" width="110" height="30" as="geometry" />
        </mxCell>
        <mxCell id="XGU3mhsUJ1ktwW29gm3S-30" value="&lt;font face=&quot;Comic Sans MS&quot;&gt;render loop process&lt;/font&gt;" style="text;html=1;align=center;verticalAlign=middle;resizable=0;points=[];autosize=1;strokeColor=none;fillColor=none;" parent="1" vertex="1">
          <mxGeometry x="230" y="143" width="128" height="27" as="geometry" />
        </mxCell>
        <mxCell id="XGU3mhsUJ1ktwW29gm3S-33" style="edgeStyle=orthogonalEdgeStyle;rounded=0;orthogonalLoop=1;jettySize=auto;html=1;exitX=1;exitY=0.5;exitDx=0;exitDy=0;entryX=0;entryY=0.58;entryDx=0;entryDy=0;entryPerimeter=0;sketch=1;curveFitting=1;jiggle=2;" parent="1" source="XGU3mhsUJ1ktwW29gm3S-29" target="XGU3mhsUJ1ktwW29gm3S-27" edge="1">
          <mxGeometry relative="1" as="geometry" />
        </mxCell>
        <mxCell id="XGU3mhsUJ1ktwW29gm3S-34" value="&lt;font face=&quot;Comic Sans MS&quot;&gt;trigger&lt;/font&gt;" style="text;html=1;align=center;verticalAlign=middle;resizable=0;points=[];autosize=1;strokeColor=none;fillColor=none;" parent="1" vertex="1">
          <mxGeometry x="150" y="288" width="60" height="30" as="geometry" />
        </mxCell>
        <mxCell id="XGU3mhsUJ1ktwW29gm3S-36" style="edgeStyle=orthogonalEdgeStyle;rounded=0;orthogonalLoop=1;jettySize=auto;html=1;sketch=1;curveFitting=1;jiggle=2;" parent="1" source="XGU3mhsUJ1ktwW29gm3S-35" target="XGU3mhsUJ1ktwW29gm3S-26" edge="1">
          <mxGeometry relative="1" as="geometry" />
        </mxCell>
        <mxCell id="XGU3mhsUJ1ktwW29gm3S-35" value="&lt;font face=&quot;Comic Sans MS&quot;&gt;new &lt;font color=&quot;#7f00ff&quot;&gt;CesiumWidget&lt;/font&gt;&amp;nbsp;&lt;/font&gt;&lt;div&gt;&lt;font face=&quot;Comic Sans MS&quot;&gt;instance&lt;/font&gt;&lt;/div&gt;" style="text;html=1;align=center;verticalAlign=middle;resizable=0;points=[];autosize=1;strokeColor=none;fillColor=none;" parent="1" vertex="1">
          <mxGeometry x="-328" y="294" width="126" height="43" as="geometry" />
        </mxCell>
        <mxCell id="XGU3mhsUJ1ktwW29gm3S-47" style="edgeStyle=orthogonalEdgeStyle;rounded=0;sketch=1;hachureGap=4;jiggle=2;curveFitting=1;orthogonalLoop=1;jettySize=auto;html=1;fontFamily=Architects Daughter;fontSource=https%3A%2F%2Ffonts.googleapis.com%2Fcss%3Ffamily%3DArchitects%2BDaughter;" parent="1" source="XGU3mhsUJ1ktwW29gm3S-45" target="XGU3mhsUJ1ktwW29gm3S-35" edge="1">
          <mxGeometry relative="1" as="geometry" />
        </mxCell>
        <mxCell id="XGU3mhsUJ1ktwW29gm3S-45" value="&lt;font face=&quot;Comic Sans MS&quot;&gt;...&lt;/font&gt;" style="text;html=1;align=center;verticalAlign=middle;resizable=0;points=[];autosize=1;strokeColor=none;fillColor=none;" parent="1" vertex="1">
          <mxGeometry x="-460" y="300" width="30" height="30" as="geometry" />
        </mxCell>
        <mxCell id="-csEgPG5xFllc0H3XNbd-19" value="&lt;span style=&quot;font-family: &amp;quot;Comic Sans MS&amp;quot;;&quot;&gt;change&lt;/span&gt;" style="text;html=1;align=center;verticalAlign=middle;resizable=0;points=[];autosize=1;strokeColor=none;fillColor=none;fontFamily=Architects Daughter;fontSource=https%3A%2F%2Ffonts.googleapis.com%2Fcss%3Ffamily%3DArchitects%2BDaughter;" vertex="1" parent="1">
          <mxGeometry x="-212" y="282" width="56" height="28" as="geometry" />
        </mxCell>
        <mxCell id="-csEgPG5xFllc0H3XNbd-20" value="&lt;font face=&quot;Comic Sans MS&quot;&gt;setter call&lt;/font&gt;" style="text;html=1;align=center;verticalAlign=middle;resizable=0;points=[];autosize=1;strokeColor=none;fillColor=none;fontFamily=Architects Daughter;fontSource=https%3A%2F%2Ffonts.googleapis.com%2Fcss%3Ffamily%3DArchitects%2BDaughter;" vertex="1" parent="1">
          <mxGeometry x="-28" y="284" width="77" height="28" as="geometry" />
        </mxCell>
      </root>
    </mxGraphModel>
  </diagram>
</mxfile>
